<svg height="510" width="720" xmlns="http://www.w3.org/2000/svg">
<rect height="510" fill="#555" width="720"></rect>
<text fill="#7f7" font-family="Courier New" font-size="12" xml:space="preserve">
<tspan x="10" y="26">2 megabytes installed</tspan>
<tspan x="10" y="42"></tspan>
<tspan x="10" y="58">node_modules</tspan>
<tspan x="10" y="74">└─┬ qiniu@6.1.13 </tspan>
<tspan x="10" y="90">  ├── crc32@0.2.2 </tspan>
<tspan x="10" y="106">  ├─┬ formstream@0.0.7 </tspan>
<tspan x="10" y="122">  │ ├── buffer-concat@0.0.1 </tspan>
<tspan x="10" y="138">  │ └─┬ pause-stream@0.0.11 </tspan>
<tspan x="10" y="154">  │   └── through@2.3.8 </tspan>
<tspan x="10" y="170">  ├── mime@1.2.9 </tspan>
<tspan x="10" y="186">  ├─┬ sync-request@3.0.1 </tspan>
<tspan x="10" y="202">  │ ├─┬ concat-stream@1.6.0 </tspan>
<tspan x="10" y="218">  │ │ ├── inherits@2.0.3 </tspan>
<tspan x="10" y="234">  │ │ ├─┬ readable-stream@2.2.9 </tspan>
<tspan x="10" y="250">  │ │ │ ├── buffer-shims@1.0.0 </tspan>
<tspan x="10" y="266">  │ │ │ ├── core-util-is@1.0.2 </tspan>
<tspan x="10" y="282">  │ │ │ ├── isarray@1.0.0 </tspan>
<tspan x="10" y="298">  │ │ │ ├── process-nextick-args@1.0.7 </tspan>
<tspan x="10" y="314">  │ │ │ ├── string_decoder@1.0.0 </tspan>
<tspan x="10" y="330">  │ │ │ └── util-deprecate@1.0.2 </tspan>
<tspan x="10" y="346">  │ │ └── typedarray@0.0.6 </tspan>
<tspan x="10" y="362">  │ ├── http-response-object@1.1.0 </tspan>
<tspan x="10" y="378">  │ └─┬ then-request@2.2.0 </tspan>
<tspan x="10" y="394">  │   ├── caseless@0.11.0 </tspan>
<tspan x="10" y="410">  │   ├── http-basic@2.5.1 </tspan>
<tspan x="10" y="426">  │   ├─┬ promise@7.1.1 </tspan>
<tspan x="10" y="442">  │   │ └── asap@2.0.5 </tspan>
<tspan x="10" y="458">  │   └── qs@6.4.0 </tspan>
<tspan x="10" y="474">  └─┬ urllib@0.5.1 </tspan>
<tspan x="10" y="490">    └── debug@0.7.2</tspan>
</text>
</svg>
